<svg xmlns="http://www.w3.org/2000/svg" version="1.1" xmlns:xlink="http://www.w3.org/1999/xlink" xmlns:svgjs="http://svgjs.dev/svgjs" viewBox="0 0 4.898901698453286 3.9810561468125836"><g transform="matrix(1,0,0,1,2.4451843245979483,3.8009357627333964)"><g transform="matrix(1,0,0,1,0,0)"><path d=" M -1.1242622938840539 -1.6917729495129201 Q -1.1277588754126913 -1.6857087993157704 -1.1301237175245573 -1.6836093894496544 Q -1.1409489047899908 -1.674844954461117 -1.1603394528596491 -1.6802538957214996 Q -1.1797300009293075 -1.6856628369818825 -1.2039866017179066 -1.6996491630964317 Q -1.2395051957297842 -1.7201291406213075 -1.2753592324211833 -1.7500371337490954 Q -1.3112132691125822 -1.7799451268768833 -1.3297411623835533 -1.7998628870657076 Q -1.3441642944559473 -1.790864372675972 -1.366633946891008 -1.7859283095232596 Q -1.389103599326069 -1.780992246370547 -1.4037294579551096 -1.7836538735727148 Q -1.4059615839441004 -1.7837865896955896 -1.4085605054571646 -1.7852851246364343 Q -1.411159426970229 -1.7867836595772788 -1.4128920413122716 -1.7877826828711751 Q -1.4146246556543145 -1.7887817061650715 -1.4166070258198313 -1.7893475758734572 Q -1.4185893959853484 -1.7899134455818428 -1.4194557031563697 -1.790412957228791 Q -1.4324503107216908 -1.797905631933014 -1.427455194252209 -1.8065687036432279 Q -1.4229595894296752 -1.8143654681824206 -1.416029132061504 -1.810369375006835 Q -1.4120643917304703 -1.8092376355900637 -1.4044353485310384 -1.8094560385689862 Q -1.3968063053316064 -1.8096744415479085 -1.391343030059728 -1.8111416236442013 Q -1.3804164795159712 -1.814075987836787 -1.3698567244962878 -1.8183761708473423 Q -1.3592969694766042 -1.8226763538578976 -1.3533341825577776 -1.825009843125212 Q -1.3692631543156843 -1.8434290683731915 -1.3935584126935034 -1.8793698588535777 Q -1.422786081851701 -1.9227719711936349 -1.459463048819628 -1.9802811017211743 Q -1.4961400157875548 -2.0377902322487143 -1.5387990984689184 -2.103943105691858 L -1.622017853965529 -2.2338840104662796 Q -1.6511128070008518 -2.279518248795328 -1.6778079127074226 -2.320305763200045 Q -1.7045030184139933 -2.3610932776047617 -1.7268315830485714 -2.392437099984291 Q -1.7191988874768056 -2.3776471723878236 -1.710333089209945 -2.360991914326439 Q -1.7014672909430846 -2.3443366562650536 -1.6929682882002972 -2.329047217021638 Q -1.68890218459094 -2.322085406808915 -1.6846526832195465 -2.3144406871872074 Q -1.6804031818481528 -2.3067959675655 -1.676836589885744 -2.2989678501817554 Q -1.6642714835335994 -2.276716600725617 -1.651339581657382 -2.2530995324515093 Q -1.6384076797811642 -2.229482464177401 -1.6246094707339251 -2.205365884256345 Q -1.5628843255454228 -2.0982070934295614 -1.5308477035728463 -2.011629643405977 Q -1.5223800536746108 -1.9882780073776192 -1.5159611320033295 -1.9643761780631512 Q -1.5095422103320484 -1.9404743487486833 -1.506038324058743 -1.916521837795054 Q -1.4930531551039692 -1.8109169828535505 -1.5401086131954222 -1.73531417957349 Q -1.5588246235337035 -1.7068587590526587 -1.59605285072068 -1.702352197113123 Q -1.6332810779076563 -1.697845635173587 -1.6644681360644267 -1.7158280544637219 Q -1.6809279723138335 -1.7253187757557376 -1.6921586126925598 -1.7398746239510066 Q -1.7070885611565703 -1.760026463541029 -1.7188730471937408 -1.791639370538642 Q -1.7306575332309113 -1.8232522775362552 -1.7380284489292612 -1.857514787686094 Q -1.7453993646276111 -1.891777297835933 -1.7443062828000597 -1.9176965025328037 Q -1.7441735666771847 -1.9199286285217947 -1.7426750317363402 -1.9225275500348589 Q -1.739178450207703 -1.9285917002320088 -1.7339806071815744 -1.9255946303503195 Q -1.730515378497489 -1.9235965837625266 -1.7273155820591533 -1.9171342851967519 Q -1.7234135474172227 -1.8998781522100954 -1.7101812080783696 -1.8737792021235222 Q -1.6969488687395162 -1.8476802520369493 -1.6796854310081915 -1.8215656255281003 Q -1.662421993276867 -1.7954509990192513 -1.6447604071769173 -1.7760327504773754 Q -1.6274656166010408 -1.757980320753469 -1.6092731660095914 -1.747490576167557 Q -1.5746208791687353 -1.7275101102896293 -1.560135041407238 -1.75263301824925 Q -1.5416531104701547 -1.784686383577042 -1.5452970176110032 -1.8364234296924598 Q -1.5549496740045663 -1.9377981120571794 -1.6136850540560477 -2.0801714070608703 Q -1.62731919413586 -2.1145823097558605 -1.642202113333043 -2.1468274445232964 Q -1.6570850325302258 -2.179072579290733 -1.6718509120268092 -2.209518741654689 Q -1.6789840959516271 -2.2251749764221778 -1.686117279876445 -2.240831211189666 Q -1.6932504638012627 -2.256487445957155 -1.7021162620681232 -2.27314270401854 Q -1.7203160174042407 -2.3136491097552314 -1.7388982446867074 -2.351490235917421 Q -1.7574804719691741 -2.3893313620796106 -1.7664476335143577 -2.411816690936947 Q -1.7752820789366668 -2.436534145783275 -1.7803158529953684 -2.4498255384388976 Q -1.78534962705407 -2.4631169310945205 -1.7763584174090026 -2.4787104601729055 Q -1.7668676961169871 -2.4951702964223124 -1.7527256727126188 -2.495673460441594 Q -1.7385836493082505 -2.496176624460877 -1.7238564274008867 -2.487684926462758 Q -1.7082628983225017 -2.4786937168176904 -1.6945503761313099 -2.4644383060850568 Q -1.6808378539401183 -2.450182895352423 -1.6717066234275078 -2.4379918892690204 Q -1.6234829021959427 -2.367476127126218 -1.578123534723192 -2.293994647946278 Q -1.532764167250441 -2.220513168766338 -1.48740479977769 -2.147031689586398 Q -1.4424122278290126 -2.0749160292244277 -1.395554325415417 -2.004033471557552 Q -1.3486964230018215 -1.933150913890676 -1.2956103014236495 -1.8690660974690965 L -1.2705647086424685 -1.8984891884392727 Q -1.3027894476823554 -1.9366934577532013 -1.3313655602761199 -1.9722167710703526 Q -1.3599416728698843 -2.0077400843875037 -1.3906678769689265 -2.048543275214497 Q -1.4226271837630633 -2.091211796506408 -1.4588866735677553 -2.1444400728180018 Q -1.4951461633724474 -2.197668349129596 -1.5432371684811375 -2.2704162372613896 Q -1.5638331187736727 -2.3007610363470223 -1.5881790587906535 -2.3396168622253843 Q -1.6125249988076342 -2.378472688103746 -1.6322076126623206 -2.4204112707198444 Q -1.6518902265170068 -2.462349853335943 -1.656880623681215 -2.502742871744369 Q -1.6618710208454233 -2.5431358901527954 -1.6433890899083403 -2.5751892554805873 Q -1.624407647324309 -2.6081089279794005 -1.5916279956930388 -2.616912020557158 Q -1.5588483440617686 -2.6257151131349152 -1.5285275930760194 -2.608232205491728 Q -1.518998214194784 -2.602737577375298 -1.508368448741329 -2.5931454928049593 Q -1.4679487967936247 -2.55714199663547 -1.4443291430801222 -2.491001147242268 Q -1.4207094893666197 -2.4248602978490656 -1.4219906882614817 -2.35056791244254 Q -1.3621747020059056 -2.4222759858253378 -1.2981332624788195 -2.4482604816507063 Q -1.2340918229517337 -2.474244977476075 -1.1855786213745352 -2.446272325246976 Q -1.146594798678572 -2.4237943011343077 -1.1281296110967045 -2.3877521473755983 Q -1.089700700992125 -2.3182667613712438 -1.1041332716750663 -2.211156066744228 Q -1.1116499944791727 -2.1600826012431846 -1.1285947328861914 -2.10867369306262 Q -1.152329907793838 -2.033476342895853 -1.1902927929619005 -1.9676369978982262 Q -1.204778630723398 -1.9425140899386055 -1.2218633899979596 -1.9188897169198293 Q -1.2007365752139245 -1.8974734217901608 -1.1761758845903554 -1.8659968832877567 Q -1.1516151939667865 -1.8345203447853526 -1.134199711317977 -1.7996606120825762 Q -1.1167842286691674 -1.7648008793798 -1.1151770257053313 -1.7315530689461331 Q -1.116769619179831 -1.7047675570782412 -1.1242622938840539 -1.6917729495129201 M -1.2438565119530163 -1.9408055236964463 Q -1.2344985067838756 -1.9550332339568621 -1.2254409390773708 -1.9717428260297427 Q -1.2163833713708658 -1.9884524181026235 -1.2081257527739448 -2.0067775848169482 Q -1.1896124689923102 -2.0468931469296825 -1.1774794492927367 -2.088956073991048 Q -1.1653464295931635 -2.131019001052414 -1.160725413392423 -2.1710645527313766 Q -1.1564711927157556 -2.2124759232283093 -1.1615436243636772 -2.2477217802497687 Q -1.1747555679749808 -2.3269079188474535 -1.2301992269203508 -2.3588766642521373 Q -1.2761135069844851 -2.3853507815403914 -1.3274644287812198 -2.369363823398655 Q -1.3788153505779546 -2.3533768652569185 -1.4163487345328403 -2.3022960950112075 L -1.4076156523888548 -2.283408710960831 Q -1.4049153675974673 -2.276080105224035 -1.401781929220569 -2.268501743663765 Q -1.398648490843671 -2.2609233821034946 -1.3979148997955244 -2.2581917444675557 Q -1.3938487961861674 -2.251229934254833 -1.3968458660678564 -2.246032091228704 Q -1.400841959243442 -2.239101633860533 -1.415167380409847 -2.2392813792502357 Q -1.4294928015762518 -2.2394611246399383 -1.442487409141573 -2.246953799344161 Q -1.458080938219958 -2.2559450089892286 -1.4626152006317117 -2.2701027088158723 Q -1.4661817925941205 -2.2779308261996167 -1.4611046416409252 -2.2917410592967977 Q -1.4560274906877302 -2.3055512923939787 -1.4463026899945162 -2.318413183836425 L -1.4609045005236732 -2.359153668974314 Q -1.4740391289565373 -2.3944308788403252 -1.4897063208410282 -2.4323226866416765 Q -1.505373512725519 -2.4702144944430278 -1.5280688728841705 -2.5029241356405265 Q -1.5507642330428215 -2.5356337768380253 -1.583683905541635 -2.5546152194220566 Q -1.6088068135012557 -2.5691010571835537 -1.618297534793271 -2.5526412209341474 Q -1.6277882560852868 -2.5361813846847405 -1.62368349488671 -2.507265110106181 Q -1.6187124265171118 -2.477849323880673 -1.6048948886752628 -2.4427555117766984 Q -1.5910773508334137 -2.407661699672724 -1.5713790605564517 -2.3697542154490967 Q -1.5617796712414447 -2.3503673197517725 -1.5520475658035626 -2.3332125500434393 Q -1.5423154603656808 -2.3160577803351057 -1.5325833549277987 -2.2989030106267725 Q -1.5126196324050867 -2.2654597783811274 -1.494856683026814 -2.2402114590433 Q -1.477093733648541 -2.2149631397054725 -1.468828810306952 -2.2032716452690178 Q -1.3883803500355003 -2.0945516138122864 -1.3247658262821964 -2.0267047836163194 L -1.2438565119530163 -1.9408055236964463 M -1.144491448652516 -1.7207519297805833 Q -1.1404953554769306 -1.7276823871487546 -1.162507806226597 -1.7605754261082898 Q -1.1845202569762634 -1.7934684650678252 -1.234640661517298 -1.8546889277305905 Q -1.2395730722976765 -1.8621502495902615 -1.244388443377456 -1.8678125990464525 Q -1.2492038144572353 -1.8734749485026432 -1.2525363270184457 -1.877705121079427 Q -1.2662572208872451 -1.8579127722688098 -1.2790804547404715 -1.845683108596187 Q -1.274148043960093 -1.8382217867365158 -1.2626676477578924 -1.8240990921267572 Q -1.2511872515556917 -1.809976397516999 -1.2383410365355214 -1.796220498431314 Q -1.2254948215153512 -1.7824645993456287 -1.2169644659280123 -1.7752373568871558 Q -1.2033689834374197 -1.7627809185580028 -1.1866750677868148 -1.7496922524590266 Q -1.16998115213621 -1.7366035863600504 -1.157486056217837 -1.728244604484806 Q -1.1449909602994643 -1.7198856226095618 -1.144491448652516 -1.7207519297805833 M -0.752555860778798 -2.41267227472344 Q -0.787788891010625 -2.388022049964157 -0.8181717261790435 -2.4314488081568744 Q -0.8393823846928451 -2.4617656016121674 -0.8577177405116168 -2.52460519682887 Q -0.8578077755326416 -2.4915901715571094 -0.8615849881360671 -2.4559954716012378 Q -0.8653622007394925 -2.420400771645366 -0.8738890763130954 -2.3924670573747524 Q -0.8824159518866984 -2.3645333431041387 -0.8988034078084783 -2.3530681222858676 Q -0.9242039644872374 -2.3352970300175473 -0.9456652335014456 -2.34591135676491 Q -0.9671265025156538 -2.3565256835122734 -0.9820312895794062 -2.3778293762105873 Q -0.9917767272749367 -2.3917587137441 -0.9989004719393312 -2.406301831083808 Q -1.0060242166037257 -2.420844948423516 -1.0096258579103323 -2.432970466140238 Q -1.0238673489121464 -2.486469811314224 -1.0322081561167245 -2.548979258081701 Q -1.0405489633213028 -2.611488704849178 -1.0419671201061496 -2.674569913075825 Q -1.0433852768909964 -2.737651121302472 -1.0364911485825965 -2.7888514239858284 Q -1.030092242948035 -2.8250599037478947 -1.0178016510067 -2.8336588193615984 Q -1.0096079230458102 -2.8393914297707337 -1.003302051595761 -2.8303783290137545 Q -0.9987159632684526 -2.823823346645043 -0.996139287747829 -2.8079296138153573 Q -0.9935626122272053 -2.7920358809856722 -0.9952883936769208 -2.7700808888793693 Q -0.9968491009020236 -2.753123171080163 -0.9926396781161968 -2.7139628498377353 Q -0.9884302553303701 -2.6748025285953068 -0.9813965456870006 -2.627244385983839 Q -0.9743628360436312 -2.57968624337237 -0.9656903808080837 -2.533274622842729 Q -0.9570179255725362 -2.4868630023130875 -0.9493254186124592 -2.4531906793063634 Q -0.9417979858769951 -2.4145210819925422 -0.9291862429768969 -2.3964948804785844 Q -0.9182942831995393 -2.3809267973528936 -0.9084618096464714 -2.387805929843856 Q -0.8937130993168694 -2.3981246285803 -0.8892770893967366 -2.447605148140916 Q -0.8884547174371602 -2.4603849644291143 -0.8872196599160518 -2.4856579664850544 Q -0.8859846023949435 -2.5109309685409946 -0.8854038434453114 -2.540627983863118 Q -0.8848230844956793 -2.570324999185241 -0.8851847542197239 -2.5987524365479495 Q -0.8855464239437685 -2.627179873910658 -0.8873442454335845 -2.645449188016304 L -0.8920023738009932 -2.6922284765969646 Q -0.8942113812705974 -2.7041078825585116 -0.8858105607380696 -2.719138724663339 Q -0.8774097402055419 -2.7341695667681667 -0.8642997754681179 -2.743341743422784 Q -0.8528285563228719 -2.7513673979955735 -0.844802901750082 -2.7398961788503273 Q -0.8379237692591194 -2.7300637052972596 -0.8347318143505572 -2.7176515570600803 Q -0.8315398594419949 -2.7052394088229015 -0.8300691872379171 -2.689182101350347 Q -0.8277821414012377 -2.6614914996714214 -0.8210320631148377 -2.626549598705282 Q -0.8142819848284375 -2.591607697739143 -0.8052778815619208 -2.5612939034473374 Q -0.796273778295404 -2.530980109155532 -0.7878399369063134 -2.5136922429071005 Q -0.7837460720893559 -2.5043519928643834 -0.7796927260376796 -2.4968140630567133 Q -0.7756393799860034 -2.489276133249043 -0.771053291658695 -2.482721150880331 Q -0.7658939422904729 -2.47534679571553 -0.7627815253307297 -2.472642565572088 Q -0.7559834303703297 -2.4664147324891137 -0.7527059391859736 -2.468707776652768 Q -0.7494284480016177 -2.4710008208164225 -0.7478707399400023 -2.4757519833683435 Q -0.7388546400195359 -2.4942644100656777 -0.731966510038111 -2.5210516022544645 Q -0.725078380056686 -2.547838794443251 -0.7214647420961297 -2.584539497715668 Q -0.7187575127891999 -2.5998584699226965 -0.7178120849520357 -2.6133346031293962 Q -0.7168666571148715 -2.626810736336096 -0.7160442851552951 -2.6395905526242944 Q -0.7164524719715959 -2.64540719972748 -0.7115362351950619 -2.6488467659729613 Q -0.7017037616419939 -2.655725898463924 -0.6936781070692041 -2.644254679318678 Q -0.6902385408237228 -2.6393384425421442 -0.6917152113547754 -2.630982639520129 Q -0.6924565457837891 -2.6145981827618363 -0.6944269394069364 -2.597353834442173 Q -0.6963973330300837 -2.5801094861225105 -0.6973847792142729 -2.562332395527215 Q -0.7010794547053918 -2.529236332724892 -0.707232248584778 -2.494420486799828 Q -0.7119083719331113 -2.4679604438967795 -0.7244480747931091 -2.445762339198789 Q -0.7369877776531071 -2.4235642345007977 -0.752555860778798 -2.41267227472344 M -0.5347036605255582 -2.153009080777463 Q -0.5845961236550746 -2.132351343174573 -0.6148176286667096 -2.2053421688640507 Q -0.6220860918973561 -2.2228969244096213 -0.6281129544062064 -2.245295070053835 Q -0.6341398169150566 -2.2676932156980487 -0.6380011441997123 -2.295317302137256 Q -0.6464889001617234 -2.3524133440204666 -0.6492417737611689 -2.4113427228305766 Q -0.6519946473606144 -2.470272101640687 -0.6504779569059413 -2.529345781482599 Q -0.6491782278725561 -2.5601891066023033 -0.6473550251937011 -2.6015312876283665 Q -0.6455318225148461 -2.64287346865443 -0.6431672360299425 -2.685522134879242 Q -0.6408026495450388 -2.728170801104054 -0.638961536705605 -2.7603206114225065 L -0.649124816231988 -2.7561125537626587 Q -0.6648317027727617 -2.749609191924712 -0.6686572097362597 -2.7588485369486966 Q -0.6709525139143586 -2.764392143963087 -0.6665890012274934 -2.7721516386007274 Q -0.6622254885406282 -2.7799111332383672 -0.6502143400094483 -2.784884292290915 L -0.6391271259806669 -2.7894749006471127 Q -0.637444846250932 -2.8193942912644183 -0.6322939241809357 -2.8696905933335453 Q -0.6271430021109394 -2.9199868954026718 -0.6193176032491761 -2.9795080104178853 Q -0.6114922043874126 -3.039029125433099 -0.6035549467323238 -3.0969730633465407 Q -0.5956176890772349 -3.1549170012599816 -0.5879801874809648 -3.1992077290635184 Q -0.5821256704125395 -3.2373485815696634 -0.5683997999131486 -3.269548744287171 Q -0.5546739294137577 -3.3017489070046784 -0.5356247914039454 -3.3237063736409533 Q -0.5165756533941332 -3.3456638402772283 -0.4956428260583665 -3.3500016668909804 L -0.4898106169803727 -3.343757842960842 Q -0.49897832136204195 -3.3031628531668993 -0.5119323343033702 -3.2377301125188422 Q -0.5248863472446984 -3.172297371870785 -0.5379018665802973 -3.0965570506645435 Q -0.5496757851941 -3.025660119556945 -0.559840084467654 -2.952182660290326 Q -0.5700043837412081 -2.8787052010237075 -0.5735277763103769 -2.816636000087949 L -0.4681992430369533 -2.8602467794718276 Q -0.4589598980129688 -2.864072286435326 -0.45513439104947073 -2.8548329414113414 Q -0.45283908687137187 -2.8492893343969508 -0.45489276330224093 -2.842486216500185 Q -0.45694643973311 -2.835683098603419 -0.46433791575229766 -2.832622693032621 L -0.5761339905425102 -2.786334058774294 L -0.5786753202976915 -2.750647343555946 Q -0.5641742141575564 -2.7339225738800277 -0.5515355091001154 -2.7099327190561437 Q -0.5388968040426744 -2.6859428642322603 -0.52742028315218 -2.6582248291603063 Q -0.5098229511200887 -2.6157238420499778 -0.49665401625181477 -2.5708481342067007 Q -0.48348508138354085 -2.5259724263634236 -0.47678706611473765 -2.4941112181085745 Q -0.44763481638447367 -2.3557380041700946 -0.4625272688806639 -2.266232614060623 Q -0.4774197213768542 -2.176727223951151 -0.5347036605255582 -2.153009080777463 M -0.5348692498006201 -2.182163370002069 Q -0.5136187562454557 -2.1909620360181146 -0.5040718792501182 -2.2463254457725355 Q -0.49452500225478063 -2.301688855526956 -0.4976347404774629 -2.3902344908128716 Q -0.4993305325379241 -2.4230845180470717 -0.507497244197856 -2.4689490448696993 Q -0.5156639558577878 -2.514813571692327 -0.5289771917578634 -2.5639588435897225 Q -0.5422904276579388 -2.6131041154871184 -0.5595052089936803 -2.6546811680950486 Q -0.5644783680462279 -2.666692316626228 -0.5697222190017998 -2.678050222558034 Q -0.5749660699573715 -2.68940812848984 -0.5804806128159677 -2.7001127918222716 L -0.5835207498906769 -2.6133501410642004 Q -0.5854199910416998 -2.5552003957246874 -0.5862509966585228 -2.493163637027405 Q -0.5870820022753456 -2.4311268783301228 -0.5841378533277253 -2.3717355322688136 Q -0.582665778853915 -2.3420398592381586 -0.5804934874643574 -2.315881091107399 Q -0.5783211960747997 -2.289722322976639 -0.5754486877694946 -2.2671004597457745 Q -0.5697685556358365 -2.2272415071887366 -0.5602047882270912 -2.2041431446287754 Q -0.5494933687292965 -2.1782729785616186 -0.5348692498006201 -2.182163370002069 M -0.3604255821767417 -2.2362554766178584 Q -0.41327178232830775 -2.2251523631112504 -0.42951522616204874 -2.3024643966663194 Q -0.43342187721066994 -2.3210584300529815 -0.43521508110321216 -2.3441838364234604 Q -0.4370082849957544 -2.367309242793939 -0.43570940839607747 -2.395171635361319 Q -0.4335228816228943 -2.45285368716836 -0.4253617482263278 -2.511280101585843 Q -0.41720061482976123 -2.569706516003326 -0.40481652826900627 -2.6274874332689397 Q -0.397851464865574 -2.657562138450972 -0.3884358769738218 -2.6978591197852198 Q -0.37902028908206964 -2.738156101119467 -0.3688316810672627 -2.77963732900294 Q -0.3586430730524558 -2.8211185568864128 -0.3509049895259687 -2.852377508617671 L -0.36166995622350995 -2.8501157632737324 Q -0.3783067229378919 -2.846620338651282 -0.3803628550687452 -2.8564066720126826 Q -0.38159653434725715 -2.8622784720295233 -0.3758769736662457 -2.8691002478698913 Q -0.3701574129852342 -2.875922023710259 -0.3574351796154127 -2.8785949954803685 L -0.34569157958173136 -2.8810623540373923 Q -0.33852090296521375 -2.9101584258832847 -0.32418349088014814 -2.9586423264555677 Q -0.3098460787950825 -3.0071262270278507 -0.29117896579131625 -3.0641835568996965 Q -0.27251185278754997 -3.121240886771542 -0.2540256366322257 -3.1767274600326347 Q -0.23553942047690146 -3.2322140332937277 -0.21986552250678124 -3.2743368171811 Q -0.20707809181579478 -3.3107439815354303 -0.18764978213288255 -3.3398608285979963 Q -0.16822147244997027 -3.3689776756605623 -0.1454499774804366 -3.387045852570602 Q -0.12267848251090296 -3.405114029480642 -0.10130472959961923 -3.405517373610874 L -0.0967239238865163 -3.398305146561009 Q -0.11322027470897783 -3.360096896018197 -0.13801817481992623 -3.2981750569782635 Q -0.1628160749308747 -3.23625321793833 -0.18957518286207298 -3.1642119093527246 Q -0.21422084363719224 -3.0967019737509354 -0.23776034810498548 -3.026358944747268 Q -0.26129985257277866 -2.9560159157436012 -0.27620861271578334 -2.895660892166451 L -0.16464441239581046 -2.919100798458178 Q -0.15485807903440935 -2.9211569305890315 -0.15280194690355609 -2.9113705972276307 Q -0.1515682676250441 -2.9054987972107895 -0.15484124496570528 -2.899191054403135 Q -0.15811422230636646 -2.8928833115954804 -0.16594328899548738 -2.891238405890798 L -0.28435792266844107 -2.866359207107473 L -0.2934364332279523 -2.8317531289416245 Q -0.2822681224001796 -2.8126411213742792 -0.2742699823065255 -2.7867320543312095 Q -0.26627184221287137 -2.76082298728814 -0.2601034458203115 -2.7314639872039366 Q -0.25064523801838634 -2.6864468537414914 -0.24597739029061919 -2.639912337545549 Q -0.24130954256285198 -2.5933778213496073 -0.24060171976096215 -2.5608278753146116 Q -0.2374659498817444 -2.4194518980509176 -0.26860813260889954 -2.334227696940033 Q -0.2997503153360547 -2.2490034958291485 -0.3604255821767417 -2.2362554766178584 M -0.35521217223250434 -2.26494032203758 Q -0.3327036055012817 -2.2696694259385426 -0.3131112330386314 -2.322322905797758 Q -0.29351886057598114 -2.3749763856569728 -0.2802471238417199 -2.4625769621622475 Q -0.27585616674982383 -2.4951763409265295 -0.2754252345838052 -2.541760289851758 Q -0.27499430241778644 -2.5883442387769864 -0.27901665299368483 -2.6391017081371166 Q -0.28303900356958317 -2.6898591774972473 -0.292291598158423 -2.733897677623552 Q -0.2949645699285322 -2.7466199109933735 -0.2980240517601689 -2.7587500210885825 Q -0.30108353359180556 -2.770880131183791 -0.3045295254849696 -2.7824181180043874 L -0.3235168817522727 -2.6977040087782465 Q -0.336106581526113 -2.6409017248487725 -0.34836314511568206 -2.5800821009681956 Q -0.3606197087052511 -2.5192624770876186 -0.368678035495275 -2.460346746002066 Q -0.3727071988902869 -2.4308888804592894 -0.3753959352522746 -2.404778141351104 Q -0.3780846716142623 -2.378667402242918 -0.37943298094322575 -2.355903789569324 Q -0.3812003989942991 -2.3156809573290063 -0.37606006866716585 -2.2912151239255034 Q -0.37030289870077665 -2.2638133905135804 -0.35521217223250434 -2.26494032203758 M 0.19897445958567056 -2.4462761337802013 Q 0.19233067298054382 -2.448480697125977 0.18979827348488607 -2.4503746223606133 Q 0.1790345007509192 -2.459214373292145 0.18043022249620438 -2.479296752653409 Q 0.18182594424148957 -2.4993791320146737 0.19064419762459311 -2.5259542784351803 Q 0.20355664007842336 -2.56486788569378 0.22563666961366693 -2.6060075538465832 Q 0.2477166991489105 -2.6471472219993863 0.26349797626765153 -2.6693046427089704 Q 0.2517807916518381 -2.681621605998635 0.24242348943737038 -2.702638049448161 Q 0.23306618722290262 -2.7236544928976865 0.2327297520536496 -2.738516754212066 Q 0.2324105149231389 -2.7407299165772128 0.23335532778561427 -2.7435772536936955 Q 0.23430014064808966 -2.7464245908101788 0.2349300158897399 -2.7483228155545003 Q 0.23555989113139017 -2.7502210402988223 0.23571521018695996 -2.7522767338535568 Q 0.23587052924252971 -2.754332427408291 0.23618546686335484 -2.7552815397804524 Q 0.24090953117573174 -2.7695182253628667 0.25040065489734137 -2.7663688491546155 Q 0.25894266624679 -2.7635344105671895 0.25642316528018905 -2.7559415115899015 Q 0.2561125271690495 -2.7518301244804326 0.25786188212232997 -2.744401143578086 Q 0.2596112370756105 -2.7369721626757393 0.2621479360809538 -2.7319159627037948 Q 0.2672213340916405 -2.721803562759906 0.27355878209531326 -2.712325337567353 Q 0.27989623009898607 -2.7028471123748004 0.2833820414764904 -2.697475974782031 Q 0.298218505732756 -2.7167860583751318 0.3285342080159942 -2.747817626093732 Q 0.3651658607544774 -2.785182342306319 0.41411662653746784 -2.832683105766066 Q 0.46306739232045835 -2.880183869225813 0.519281071176012 -2.9352839809273754 L 0.6298145036524827 -3.042951804834843 Q 0.668659318756113 -3.080635758177941 0.7032395774495471 -3.1149935187087903 Q 0.7378198361429813 -3.149351279239639 0.7640284508264362 -3.177531210332071 Q 0.7510773127854358 -3.1670780757092434 0.7365471871306241 -3.155041653962919 Q 0.7220170614758125 -3.1430052322165953 0.7087509858139869 -3.131602985221607 Q 0.7027499729795671 -3.1262189490997807 0.6961169351486544 -3.1205178256022865 Q 0.6894838973177416 -3.1148167021047923 0.6825337721111608 -3.1097476036037914 Q 0.6632666836149155 -3.092961320486977 0.6427355451256841 -3.0755408626188263 Q 0.6222044066364527 -3.0581204047506763 0.6013583305263962 -3.039750834510365 Q 0.5088150380241279 -2.9577219431803 0.4304568369880471 -2.9089162843855543 Q 0.4092872242377943 -2.895922151247698 0.38716634936053773 -2.8848240930993208 Q 0.3650454744832811 -2.873726034950944 0.34228827509984594 -2.865473164164207 Q 0.241457715733356 -2.831499670116041 0.1579315274735058 -2.8623764554859603 Q 0.12629158206168334 -2.8749825593383367 0.11438468231281554 -2.9105420269717306 Q 0.10247778256394773 -2.946101494605125 0.11381553691365232 -2.9802695400029195 Q 0.11979935170932973 -2.998302675073978 0.13179707786848366 -3.0122330220549385 Q 0.14853176686907119 -3.030913230406389 0.1771260610119852 -3.0488189932348337 Q 0.2057203551548992 -3.0667247560632784 0.2377983109204747 -3.0808405186676078 Q 0.26987626668605025 -3.094956281271937 0.29548510269565387 -3.099102064458891 Q 0.2976982650608009 -3.0994213015894014 0.30054560217728377 -3.0984764887269263 Q 0.30718938878241053 -3.09627192538115 0.30529976305745976 -3.0905772511481846 Q 0.30404001257415925 -3.0867808016595406 0.29835393736056465 -3.0823458779098756 Q 0.2822362250725706 -3.0750507185146705 0.2593344554077796 -3.056836467329929 Q 0.2364326857429886 -3.0386222161451877 0.21432685914963154 -3.0164561964162324 Q 0.19222103255627448 -2.994290176687277 0.17675469305835861 -2.9730818683498543 Q 0.16255240355342881 -2.952507734763767 0.15593871351610114 -2.9325763749483866 Q 0.14334120868309602 -2.8946118800619485 0.17086546747576392 -2.8854786890580195 Q 0.20598262524571953 -2.87382599708749 0.2559276482525696 -2.887807938184677 Q 0.35328529477061194 -2.9176657456136885 0.48092424749440793 -3.003853318659764 Q 0.5118870230580388 -3.024134012173454 0.5404770176912671 -3.0452020497392063 Q 0.5690670123244956 -3.066270087304959 0.5959184007786574 -3.086861418929789 Q 0.6098186511918189 -3.096999615931791 0.6237189016049802 -3.107137812933793 Q 0.6376191520181417 -3.1172760099357952 0.6521492776729533 -3.1293124316821195 Q 0.688163953698843 -3.1552920989384607 0.721490911173505 -3.181109997874704 Q 0.7548178686481671 -3.206927896810947 0.7750383690262589 -3.2202369675696287 Q 0.7974720317694978 -3.2338652754588204 0.8094783569480228 -3.2414710729651652 Q 0.8214846821265479 -3.2490768704715096 0.8385687048254453 -3.243407993296657 Q 0.8566018398965035 -3.2374241785009796 0.8599409312378092 -3.2236727978788595 Q 0.8632800225791148 -3.20992141725674 0.8579260830250877 -3.193786506930003 Q 0.8522572058502355 -3.176702484231106 0.8410532730076727 -3.160401506074586 Q 0.82984934016511 -3.144100527918066 0.8197455392405925 -3.1327025804327633 Q 0.760378184667102 -3.071273619746899 0.6975293182257929 -3.012053521916496 Q 0.6346804517844837 -2.952833424086093 0.5718315853431746 -2.8936133262556902 Q 0.5102467688948515 -2.8350274031766234 0.4502452395700253 -2.774862492483745 Q 0.3902437102451991 -2.7146975817908667 0.3381543170281712 -2.6498000077662405 L 0.3720160238245119 -2.631188591569759 Q 0.4029530023300292 -2.670442933507297 0.43199820535575306 -2.7055837385805233 Q 0.46104340838147684 -2.7407245436537493 0.4948277240034771 -2.779034072728812 Q 0.5301910272392886 -2.8189268889273715 0.5750325556676529 -2.8651571531296036 Q 0.6198740840960172 -2.911387417331836 0.6814546010346547 -2.973135615148211 Q 0.7070333404764592 -2.9994173214963205 0.7401942301213376 -3.0310852137210995 Q 0.773355119766216 -3.062753105945878 0.8104742272198362 -3.090473529136129 Q 0.8475933346734567 -3.1181939523263793 0.8861554584789035 -3.131211732767506 Q 0.9247175822843504 -3.144229513208633 0.959834740054306 -3.1325768212381035 Q 0.9959010101964226 -3.1206091916467487 1.0111212042284827 -3.0902719918150825 Q 1.0263413982605427 -3.0599347919834163 1.015318581531663 -3.0267158589577825 Q 1.0118542677025868 -3.016275622864012 1.0045978038945522 -3.0039328625162343 Q 0.9774658738970496 -2.9570942206207795 0.9174320982495815 -2.9206463704577112 Q 0.8573983226021135 -2.884198520294643 0.7843682640619464 -2.870501420250482 Q 0.8666476003675528 -2.8263413611799946 0.9049893757652574 -2.768839985028184 Q 0.9433311511629618 -2.711338608876374 0.9256946443967548 -2.65818831603536 Q 0.911522451459624 -2.6154782592881167 0.8799341001640285 -2.590137066292797 Q 0.8196047346893203 -2.5385098674396818 0.7117810550193939 -2.5310900222635953 Q 0.6602398463599903 -2.528173892992143 0.606472576806383 -2.5344253508021044 Q 0.5280369845959617 -2.542540637278903 0.4559044443117286 -2.5664758964616126 Q 0.4283801855190607 -2.575609087465541 0.4018007395888682 -2.587589615585953 Q 0.38507464960765175 -2.562584857759886 0.3591852720547076 -2.5321917643023073 Q 0.3332958945017635 -2.501798670844728 0.3026545058234862 -2.4777236775972376 Q 0.2720131171452088 -2.4536486843497465 0.23976909354984963 -2.4453829150339526 Q 0.21321114516808498 -2.441552069467824 0.19897445958567056 -2.4462761337802013 M 0.4188417671909097 -2.6135434857841804 Q 0.43466173989682094 -2.607240433857992 0.45285234377829175 -2.6017311752483954 Q 0.4710429476597626 -2.5962219166387985 0.49065507034463207 -2.591821388966618 Q 0.533675765203015 -2.581760583138956 0.5773198860385197 -2.5783414141615784 Q 0.6209640068740243 -2.5749222451842004 0.661120166577182 -2.578455351168246 Q 0.7025403762733258 -2.5826226319036274 0.7360441503519854 -2.5946848507080653 Q 0.8109509360880466 -2.6235634491971163 0.8311069438208548 -2.684306641015418 Q 0.8477986377245865 -2.734609596739949 0.8218039221843457 -2.7816922343464165 Q 0.7958092066441049 -2.8287748719528842 0.7382196905437403 -2.855259728669994 L 0.7214764025237815 -2.842904069793159 Q 0.7148412149380259 -2.838784083664319 0.7080485585418578 -2.8341895413493985 Q 0.7012559021456897 -2.8295949990344775 0.6987278021597174 -2.8283266495318062 Q 0.6927267893252977 -2.82294261340998 0.687032115092332 -2.8248322391349308 Q 0.6794392161150442 -2.827351740101532 0.6767321497702316 -2.8414202080993194 Q 0.674025083425419 -2.8554886760971074 0.6787491477377959 -2.8697253616795217 Q 0.6844180249126482 -2.8868093843784193 0.6973734624633341 -2.8941002442639383 Q 0.7043235876699149 -2.8991693427649396 0.7188730611183116 -2.896975528193378 Q 0.7334225345667084 -2.894781713621816 0.7479784572796335 -2.887844486944292 L 0.7849465451873697 -2.9103469418425 Q 0.8168584331231615 -2.930312697735365 0.8508217151040022 -2.953285409309968 Q 0.8847849970848428 -2.976258120884571 0.9122576617612839 -3.0050722267283385 Q 0.9397303264377247 -3.0338863325721057 0.9516979560290796 -3.0699526027142223 Q 0.9608311470330083 -3.09747686150689 0.94279801196195 -3.103460676302568 Q 0.9247648768908918 -3.109444491098245 0.8972664151563373 -3.0996040336783257 Q 0.8694530158009578 -3.088814463886245 0.8378582152408339 -3.0682166829968875 Q 0.80626341468071 -3.0476189021075295 0.7730960757713033 -3.020694421988713 Q 0.7560378501305195 -3.007389650739717 0.7411927868548828 -2.994404116621232 Q 0.7263477235792458 -2.981418582502747 0.7115026603036092 -2.968433048384262 Q 0.6827616461244965 -2.9421470425264666 0.6616049319033004 -2.9196660851766865 Q 0.6404482176821044 -2.8971851278269063 0.6306593543784119 -2.8867362927137643 Q 0.5403550212994042 -2.786052990090362 0.4866995389976218 -2.710085304730315 L 0.4188417671909097 -2.6135434857841804 M 0.22328914903448907 -2.471923665376975 Q 0.23088204801177675 -2.469404164410374 0.2586718000638857 -2.4975862452576485 Q 0.2864615521159945 -2.525768326104923 0.33634208247756087 -2.5871843882617305 Q 0.3426580329328057 -2.5935175367557175 0.34723537720898406 -2.5993739793087816 Q 0.35181272148516235 -2.605230421861845 0.35528563433360993 -2.609346108481 Q 0.33313681264339706 -2.6188028361251248 0.3185765904207864 -2.628902337539957 Q 0.3122606399655415 -2.62256918904597 0.30073746999246803 -2.608481373254597 Q 0.28921430001939463 -2.5943935574632238 0.27832530479765705 -2.5790416916788645 Q 0.26743630957591946 -2.5636898258945053 0.26207377100252116 -2.5538794650423853 Q 0.25260844433902496 -2.5380551928267883 0.24314741718521443 -2.5190686458738836 Q 0.23368639003140387 -2.500082098920979 0.22801321334686597 -2.4861603509593895 Q 0.2223400366623281 -2.4722386029978 0.22328914903448907 -2.471923665376975 M 0.9970496686223238 -2.209072080073347 Q 0.9826156895649868 -2.2229162213819422 0.9839775586355979 -2.242394293992817 Q 0.9853394277062089 -2.261872366603692 1.0040290184728127 -2.281358238331097 Q 1.0171809527159783 -2.295070518435567 1.0367397018726345 -2.306794653006059 Q 1.0437207563018063 -2.311183830498134 1.0633532351770552 -2.3193732000228846 Q 1.0829857140523038 -2.327562569547635 1.1033251459367008 -2.335766685016104 Q 1.1089512781224504 -2.337298558584149 1.113855711355333 -2.339522639217624 Q 1.066622573235863 -2.332172083906147 1.0209430014553451 -2.335109212086617 Q 0.9752634296748273 -2.3380463402670872 0.9471171705130201 -2.365042415818848 Q 0.9232716131809772 -2.389299154996327 0.9252814514858624 -2.411619785587514 Q 0.9272912897907476 -2.4339404161787006 0.9445964664264919 -2.4519828900003717 Q 0.9639782642585255 -2.4721904606806433 0.9958423343285436 -2.4873539378073772 Q 1.0277064043985618 -2.502517414934111 1.0558370653273088 -2.5101767827743355 Q 1.1029817277844673 -2.5217690561407022 1.1573876176014501 -2.5243183998253262 Q 1.211793507418433 -2.52686774350995 1.2608239460928814 -2.515867012471008 Q 1.3098543847673298 -2.5048662814320655 1.3380006439291368 -2.477870205880304 Q 1.3697553978552781 -2.4474130950013944 1.375662555261021 -2.401564371012784 Q 1.3773123963788143 -2.3902826147538483 1.3743006861904101 -2.382086298401909 Q 1.371288976002006 -2.3738899820499704 1.3671357336094272 -2.369559788332769 Q 1.3609058700205594 -2.3630644977569677 1.3531441328636464 -2.3621953393669153 Q 1.3453823957067335 -2.361326180976863 1.3403305030366657 -2.3661716304348714 Q 1.3323918145551303 -2.373785908154599 1.3391369338848056 -2.389486333793047 Q 1.3465742602799107 -2.405908458384362 1.3442027202092506 -2.417882421708728 Q 1.3418311801385907 -2.4298563850330934 1.3331707927041885 -2.438162869818251 Q 1.315850017835384 -2.4547758393885655 1.278248794857057 -2.4603568814538175 Q 1.2406475718787298 -2.46593792351907 1.1968459771989717 -2.4636097689902243 Q 1.1473592665585899 -2.4625775529299267 1.0995076510922828 -2.4509705336198415 Q 1.0516560356259759 -2.4393635143097563 1.0180172100612277 -2.4245166488283005 Q 0.9885611187764953 -2.412586071045749 0.9781780127950488 -2.4017605867527463 Q 0.968487113879032 -2.3916568014126103 0.9764258023605672 -2.384042523692883 Q 0.9872512866535699 -2.373659417711436 1.0269291308281865 -2.3702434725047845 Q 1.0545740279035631 -2.3672837992640656 1.0916669419682716 -2.3691183908230116 Q 1.1287598560329801 -2.370952982381957 1.1640485227155215 -2.374518091604477 Q 1.1993371893980629 -2.378083200826997 1.2191023817667783 -2.379909993269413 Q 1.2282485330545507 -2.3822225495651987 1.23634162780046 -2.3841595104408326 Q 1.2444347225463692 -2.3860964713164665 1.2507825536849855 -2.386936137819082 Q 1.2691043481479674 -2.390147344392357 1.2857034240639047 -2.374226581887472 Q 1.2965289083569076 -2.3638434759060254 1.299261297904001 -2.351523409048945 Q 1.3019936874510945 -2.3392033421918645 1.290078707901603 -2.3340039900846112 Q 1.2844525757158536 -2.3324721165165663 1.2742681138299365 -2.32907701179148 Q 1.2640836519440195 -2.325681907066394 1.2493408603579348 -2.3204235711842665 Q 1.2233458044003511 -2.312101488166049 1.1896479950607288 -2.300082434721187 Q 1.1559501857211065 -2.288063381276324 1.126464602548937 -2.277546709512069 Q 1.0969790193767677 -2.2670300377478143 1.0808518136598233 -2.260328303959953 Q 1.0492601174039273 -2.249060441355394 1.0402614255533404 -2.239678354968125 Q 1.0340315619644724 -2.2331830643923234 1.0390834546345404 -2.2283376149343153 Q 1.0412485514931409 -2.226260993738026 1.0458806109119012 -2.2245894598493257 Q 1.0505126703306615 -2.2229179259606253 1.056919485244152 -2.2209297804266472 Q 1.0768321370500529 -2.2156870427775797 1.1044475422379927 -2.214141275555158 Q 1.1320629474259323 -2.2125955083327358 1.1687655201267702 -2.216190109442693 Q 1.1843184863280332 -2.216514520204501 1.1980819510908474 -2.2178624956207345 Q 1.2118454158536616 -2.2192104710369684 1.224541078130894 -2.2208898040421987 Q 1.2301672103166434 -2.2224216776102437 1.2337757050809777 -2.2189606422830948 Q 1.24243609251538 -2.2106541574979377 1.232745193599363 -2.2005503721578017 Q 1.2278997441413546 -2.1954984794877337 1.2208302140498715 -2.1953510200505484 Q 1.2032006266523194 -2.1928615124301403 1.186263246320197 -2.191093703762599 Q 1.1693258659880748 -2.189325895095057 1.1516667867030854 -2.1882502934929455 Q 1.1347294063709632 -2.186482484825404 1.1174311765624072 -2.1850607796905774 Q 1.1001329467538516 -2.183639074555751 1.083136582646855 -2.1846990779248023 Q 1.0520306502443295 -2.184050256401187 1.0303137510562614 -2.1910235117138286 Q 1.0085968518681934 -2.1979967670264706 0.9970496686223238 -2.209072080073347 M 1.0596310241513802 -2.0139122258763793 Q 1.0179246596464986 -2.079825647573223 1.0931335638903332 -2.1274136788672546 Q 1.1151047044559477 -2.141315800368882 1.147846423321067 -2.153157668707852 Q 1.1805881421861861 -2.1649995370468216 1.2213409576533298 -2.175401845997287 Q 1.2578685537809322 -2.1831306700435933 1.30727933787781 -2.1901359833793217 Q 1.3566901219746876 -2.19714129671505 1.4047903418730425 -2.2015423017968367 Q 1.3601712183049441 -2.238395168876818 1.339852733033335 -2.2705068358573315 Q 1.3318322783208578 -2.2831824938759553 1.3295551370970964 -2.292391979629625 Q 1.3227760699329247 -2.3105866010432092 1.3312265086120074 -2.315933570851527 Q 1.3354517279515485 -2.3186070557556864 1.3414623899306801 -2.3147183615567783 Q 1.3474730519098117 -2.31082966735787 1.352199327943977 -2.2996197469813073 Q 1.353493071999396 -2.2957048745288424 1.3553645114323074 -2.2927472209911635 Q 1.3572359508652188 -2.2897895674534845 1.359374738788546 -2.286409391981852 Q 1.3845054968876414 -2.246692330190164 1.4434567259239723 -2.20589095037151 Q 1.6848552257907679 -2.2189968369138495 1.8737077284815151 -2.1692702622536006 Q 1.909580990548757 -2.1612012431896135 1.9407036944060785 -2.140067684459256 Q 1.9718263982634 -2.1189341257288987 1.9878673076883544 -2.093582809691651 Q 2.0017694291899817 -2.0716116691260362 1.9988734902698688 -2.049070295215581 Q 1.995977551349756 -2.026528921305125 1.9689361475766918 -2.0094186179185067 Q 1.9486550947468937 -1.9965858903785432 1.9194225465433892 -1.9922895983109832 Q 1.8515236142889546 -1.9836446576687499 1.7540443545021285 -2.014268078630694 Q 1.730364409979792 -2.0217687604276415 1.7065722904105776 -2.030381834582913 Q 1.6827801708413634 -2.0389949087381853 1.6597209200931797 -2.0492550722326133 Q 1.5644140885158886 -2.0895366791357377 1.482489605524695 -2.1442027480142074 Q 1.4458236560966582 -2.142303234249938 1.40493248732908 -2.1377302355815093 Q 1.364041318561502 -2.133157236913081 1.3203046713031228 -2.1256004064534166 Q 1.303041090550768 -2.122960561835465 1.2840874220625969 -2.1192513232558503 Q 1.2651337535744256 -2.1155420846762354 1.2475598259349943 -2.111522499209544 L 1.2029781348087067 -2.103430971769048 Q 1.1795748968872388 -2.0992730330019223 1.1538608774558017 -2.091286218575653 Q 1.1281468580243643 -2.0832994041493835 1.1095558929303828 -2.0715360705710837 Q 1.093500059440126 -2.061376827935279 1.0868350634006338 -2.0494676790238935 Q 1.0801700673611416 -2.0375585301125083 1.0881905220736188 -2.0248828720938845 Q 1.1004885526327506 -2.0054468631319944 1.1385174227664234 -2.0005168493027807 Q 1.1765462929000965 -1.9955868354735673 1.2145919831768732 -1.9971760023507605 Q 1.2409790528895768 -1.998488462627085 1.2695217306687114 -2.0029399281381832 Q 1.2980644084478459 -2.0073913936492813 1.3227782105678367 -2.014153640670349 Q 1.3474920126878276 -2.0209158876914164 1.3598573238193747 -2.027556601555154 L 1.3688424594792892 -2.032058527495564 Q 1.363701123543821 -2.0607563787182364 1.3958127905243345 -2.0810748639898455 Q 1.4177839310899492 -2.094976985491473 1.4386090390110318 -2.0957285705334088 Q 1.4594341469321144 -2.0964801555753447 1.4674546016445915 -2.083804497556721 Q 1.4845649050312097 -2.056763093783657 1.4355523606925311 -2.0257506688954114 Q 1.4271019220134487 -2.0204036990870935 1.4160041766837637 -2.014565030694604 Q 1.4049064313540787 -2.0087263623021143 1.3920064232416993 -2.0029306923062857 Q 1.3940592143717057 -1.995945991269264 1.3990528388962868 -1.9843135489587473 Q 1.404046463420868 -1.9726811066482306 1.4088587362483544 -1.9650757118370563 Q 1.4270384335966362 -1.9363442203281758 1.457349733872257 -1.9277143260298 Q 1.487661034147878 -1.9190844317314242 1.5239306398955175 -1.9159996790815652 Q 1.530294647158386 -1.9152929885140912 1.532968132062545 -1.9110677691745501 Q 1.535641616966704 -1.9068425498350088 1.5330204885696581 -1.901633933327125 Q 1.5303993601726125 -1.896425316819241 1.5244840530972548 -1.8926824379534184 Q 1.5194137898898052 -1.8894742560684274 1.5127394357398602 -1.8888012057871615 Q 1.4198668149076703 -1.8915718193943407 1.3840421171919386 -1.9481897585441936 Q 1.3733481775753023 -1.9650906359023586 1.366206407016941 -1.9913393523146277 L 1.3491671763583417 -1.9864747229800281 Q 1.3444072600379686 -1.9846462819437773 1.3398025171611336 -1.9835077113318964 Q 1.3351977742842989 -1.9823691407200157 1.331282901831834 -1.9810753966645966 Q 1.3061895761745497 -1.9758480639358074 1.26683332169925 -1.9716545888046724 Q 1.2274770672239501 -1.9674611136735374 1.1856025012880296 -1.9681827283063136 Q 1.143727935352109 -1.9689043429390898 1.109432585973806 -1.979155148323065 Q 1.075137236595503 -1.98940595370704 1.0596310241513802 -2.0139122258763793 M 1.922847494210929 -2.1009600622534665 Q 1.901478331198562 -2.1122896197095584 1.8555243612561854 -2.1222637184926647 Q 1.809570391313809 -2.1322378172757714 1.7509145850992522 -2.138908379270113 Q 1.6922587788846954 -2.145578941264455 1.6322924084716157 -2.1496451950048545 Q 1.572326038058536 -2.1537114487452547 1.5220870302368539 -2.152690619135101 Q 1.5869535663485426 -2.11563211818227 1.6565108421303871 -2.083316713406708 Q 1.726068117912232 -2.0510013086311463 1.7953225088396512 -2.03506144234337 Q 1.8645768997670706 -2.019121576055594 1.9308717410790095 -2.030301648301552 Q 1.9459105371147158 -2.032717142825748 1.9543609757937985 -2.0380641126340664 Q 1.9737969847556882 -2.050362143193198 1.9609642572157246 -2.070643196022996 Q 1.9502703175990883 -2.087544073381161 1.922847494210929 -2.1009600622534665 M 0.9308790017439509 -1.8272031233162993 Q 0.9240239183972787 -1.847052753849641 0.9345944294179167 -1.8639277144944122 Q 0.9451649404385548 -1.880802675139183 0.9687954529782475 -1.888963488647126 Q 1.0103851550481067 -1.9033265204211056 1.0568444374300348 -1.8913354787417402 Q 1.1033037198119626 -1.8793444370623746 1.1496239938100827 -1.850907098636652 Q 1.1959442678082028 -1.8224697602109297 1.2374433772669566 -1.7865486812442506 Q 1.2789424867257102 -1.7506276022775717 1.3099930549879508 -1.7158589064350191 Q 1.3397576315549493 -1.7123847185029573 1.3821705843022714 -1.7090468390483573 Q 1.4245835370495932 -1.7057089595937573 1.4722122411153302 -1.7025854120883643 Q 1.519840945181067 -1.6994618645829713 1.5657083473944222 -1.6983749357912297 Q 1.6115757496077772 -1.6972880069994885 1.6475963600262065 -1.700206161396319 Q 1.613071603831904 -1.7052102806718732 1.5743884174118847 -1.7145970313553653 Q 1.5357052309918655 -1.7239837820388575 1.5001500614975618 -1.736566703886796 Q 1.4645948920032579 -1.7491496257347345 1.4396003642965778 -1.764850695275374 Q 1.4146058365898977 -1.7805517648160136 1.4077507532432256 -1.8004013953493554 Q 1.3878383682838447 -1.8580598459462057 1.4558942443981597 -1.8815629888490815 Q 1.4899221824553173 -1.8933145603005193 1.5330830623147027 -1.8939378176821118 Q 1.576243942174088 -1.894561075063704 1.619636192542363 -1.888387534104341 Q 1.663028442910638 -1.8822139931449777 1.6985324967258937 -1.8743742123646605 Q 1.6956286809823995 -1.8797191028338691 1.6931974754896995 -1.8852272095732365 Q 1.6907662699969992 -1.890735316312604 1.6891341072954107 -1.8954614188205425 Q 1.6799939961665147 -1.9219275928649984 1.682720256986513 -1.9477310325958044 Q 1.6854465178065114 -1.9735344723266104 1.6991620843125474 -1.9920245571132873 Q 1.712292939976679 -2.006080894812978 1.7170190424846177 -2.0077130575145663 L 1.7179642629862055 -2.0080394900548844 Q 1.7236355859957317 -2.0099980852967905 1.7252677486973202 -2.005271982788852 Q 1.7272263439392266 -1.9996006597793257 1.7235136161716067 -1.991970741527893 Q 1.6983675109417584 -1.9483740284434254 1.717300598280186 -1.8935512393513383 Q 1.7225235189252697 -1.878427711325935 1.7305821010751161 -1.8642834809214848 L 1.7670313753919595 -1.8567701326814854 Q 1.7895265433672085 -1.8529013579703748 1.814340816244047 -1.8392539457030697 Q 1.8289818647856424 -1.8305568371259242 1.8312668925678666 -1.8239402936148104 Q 1.8338783528904081 -1.8163785296021087 1.8276223190389773 -1.8099861872732161 Q 1.8213662851875465 -1.8035938449443234 1.810023639168494 -1.799676654460511 Q 1.7920644496383276 -1.793474436194474 1.7654790056760925 -1.795401654223361 Q 1.7388935617138577 -1.7973288722522478 1.7181525262643222 -1.8144988882243172 Q 1.6004537657429934 -1.8489662898052726 1.4912225128038963 -1.8313443324408079 Q 1.4760649076591275 -1.8292835058408052 1.4666127026432503 -1.826019180437628 Q 1.4401465285987944 -1.8168790693087318 1.4456958817841956 -1.8008103207817407 Q 1.4525509651308677 -1.780960690248399 1.4976435324394624 -1.7637368586909354 Q 1.5135221569035975 -1.7575830561976011 1.5501516860502824 -1.7480160506842672 Q 1.5867812151969674 -1.7384490451709336 1.6317885897071482 -1.7291304487261723 Q 1.6767959642173291 -1.719811852281411 1.7198617820452866 -1.7145835318236355 Q 1.7629275998732439 -1.7093552113658599 1.790733581198336 -1.7115523464433244 Q 1.8046195333011994 -1.714231961004597 1.8141910082348556 -1.7064289572499913 Q 1.8237624831685117 -1.6986259534953856 1.8270268085716888 -1.6891737484795084 Q 1.8299647014345484 -1.680666763965219 1.8278330206894688 -1.6730538842734692 Q 1.8257013399443893 -1.6654410045817194 1.8153039144269245 -1.6618502466382243 Q 1.8030160479062842 -1.657606623614094 1.788820701822786 -1.6542911825318687 Q 1.7746253557392875 -1.6509757414496433 1.7581960975526134 -1.6495337028109107 Q 1.6956752359703626 -1.6406375313302646 1.597976753113174 -1.638635920128348 Q 1.576787315299196 -1.6387238128331079 1.5551252672344238 -1.6386484892677085 Q 1.5334632191696518 -1.6385731657023093 1.5119473488153559 -1.6396062789086565 Q 1.4755662287372433 -1.6407954390584942 1.441857553893735 -1.6434365070800792 Q 1.408148879050227 -1.6460775751016639 1.3821992616089447 -1.6476953991499157 Q 1.4042119501003856 -1.6299065952165765 1.426663171723255 -1.615443101598477 Q 1.4491143933461244 -1.6009796079803773 1.472622936061692 -1.5911130777194231 Q 1.4866111195226517 -1.5843064101454531 1.499473827652182 -1.5792269673044999 Q 1.5123365357817125 -1.5741475244635463 1.5244002011201312 -1.5698500858540219 Q 1.530105601249023 -1.5686465870508475 1.5317377639506116 -1.5639204845429089 Q 1.5356549544344242 -1.5525778385238564 1.5224218674121963 -1.5480077829594083 Q 1.5158053239010822 -1.5457227551771844 1.5094470586915552 -1.5488166949835342 Q 1.4926232137258324 -1.554644064936551 1.4767445892616973 -1.5607978674298855 Q 1.4608659647975621 -1.56695166992322 1.4446609077931092 -1.5740506929181421 Q 1.417663838492143 -1.5848283665613188 1.3885108805597461 -1.6049120675098965 Q 1.3593579226273493 -1.624995768458474 1.3305923821473327 -1.6531479207899127 Q 1.277713849643815 -1.6592192303911795 1.2160969621171183 -1.6691494454705422 Q 1.1544800745904216 -1.6790796605499052 1.0951410455192805 -1.6977311920927645 Q 1.0358020164481394 -1.716382723635624 0.9918277551443058 -1.7472171904346812 Q 0.9478534938404722 -1.7780516572337384 0.9308790017439509 -1.8272031233162993 M 0.9633770084576162 -1.834194515140433 Q 0.9685999291026997 -1.8190709871150297 1.0093269035630388 -1.7961076783093093 Q 1.0265112581884448 -1.7861729938096238 1.0501830171741713 -1.7758338532978757 Q 1.073854776159898 -1.7654947127861274 1.0952926230424487 -1.7570289747178718 Q 1.1167304699249994 -1.7485632366496162 1.1259243966392896 -1.7464485944642194 Q 1.1538326093224782 -1.7391594474064414 1.189319624578051 -1.7329007136486645 Q 1.224806639833624 -1.7266419798908879 1.265655584118088 -1.7217060148540646 Q 1.2352919580558483 -1.751422175648361 1.1989305764437646 -1.7801249617023387 Q 1.1625691948316808 -1.8088277477563164 1.1237667384938825 -1.8292818275975915 Q 1.0849642821560843 -1.8497359074388666 1.048351791569082 -1.85772186592966 Q 1.0117393009820799 -1.8657078244204532 0.9814922449312731 -1.8552619831302863 Q 0.9588069528931681 -1.847427602162661 0.9633770084576162 -1.834194515140433" fill="#f9f9f9" fill-rule="nonzero"></path></g><g transform="matrix(1,0,0,1,0,0)"><g clip-path="url(#SvgjsClipPath1044)"><g clip-path="url(#bc665209b-0e2a-4794-befc-3e0935ce7ba731b6d99f-0bff-4a0e-85bb-6284dcf09be3)"><path d=" M 0.6199208990783174 -1.2397596621791944 C 0.6021378446384362 -1.6309316197830475 0.343966987146477 -1.79074965097501 0.3026814060382612 -1.7724056973269895 C 0.31276059483907304 -1.7623307577626028 0.4341017901999431 -1.678557061637811 0.49394803601386994 -1.4562625072846607 C 0.5057524148033536 -1.3497511470480879 0.42400985368985533 -1.2303561019700053 0.3701932743634293 -1.1518897021404133 C 0.3642613403137105 -1.2357143891023088 0.3931476495329007 -1.2860550930328392 0.41724082006435226 -1.3148734144692247 C 0.41969687871817585 -1.314456989299545 0.32098286732202874 -1.3045052775914923 0.30742780312532125 -1.1553358328813317 C 0.30311482815364177 -1.1079950898670632 0.3236046461964388 -1.039467654036248 0.3247604385041205 -1.007479402226589 C 0.32562728273488184 -0.9848692152075669 0.32677457656971276 -0.9653014814690599 0.3217902222428357 -0.9476204087033862 C 0.3119362429725647 -0.9691980312710602 0.29605259721479293 -0.9940518151226405 0.27247783352722776 -1.003404384494726 C 0.27247783352722776 -1.003404384494726 0.2797822709423188 -0.9543639469103375 0.2662994437648414 -0.8952655667072633 C 0.2597513704334542 -0.9156576523122786 0.24882658358400755 -0.9372480225892286 0.2303594020796531 -0.9486104807904812 C 0.2303594020796531 -0.9486104807904812 0.2292291051905233 -0.9062923352309169 0.2104984710278004 -0.8558241542076275 C 0.20692486319412295 -0.8743890681497639 0.19978189676319347 -0.8933151671880504 0.18583590281535844 -0.905710189840651 C 0.18583590281535844 -0.905710189840651 0.17778359978941483 -0.866251780395314 0.15216070414485516 -0.8212268712328339 C 0.15216070414485516 -0.8212141235235584 0.1521734518541309 -0.8212141235235584 0.1521734518541309 -0.821197126577857 C 0.09789795499377263 -0.8179167160575254 0.05262234088219986 -0.8388866978163811 0.06163922057668669 -0.8794414102594454 C 0.07877639107992207 -0.9564970635958381 0.1665953602815995 -0.9482747911128822 0.2056415937936822 -1.0157399178373723 C 0.22250256392927326 -1.0448684335328045 0.21573353030377018 -1.095166645099082 0.20872653943845032 -1.1219240868691966 C 0.2017068008638545 -1.1486687809300358 0.16434326497619045 -1.2945620643562898 0.16434326497619045 -1.3725313035241218 C 0.16434326497619045 -1.464370050384133 0.18496056011174677 -1.5047123010059327 0.2585530857615195 -1.5318436755814737 C 0.26190148406465585 -1.5256397904005357 0.263898625184547 -1.51869228884517 0.263898625184547 -1.5112093835002165 C 0.263898625184547 -1.4856842202934386 0.24213828545058513 -1.464977691192951 0.2153001081883894 -1.464977691192951 C 0.2251965798229134 -1.453989165797125 0.25375144860093024 -1.4525784193039253 0.2733914193586675 -1.464977691192951 C 0.30314457280861884 -1.4838145562663065 0.30618702608913373 -1.5192234433983325 0.3047082918131292 -1.5417189010338712 C 0.34008743429017785 -1.5383280103664816 0.35976564817574297 -1.4849576008647123 0.28287996429636264 -1.4294328284953157 C 0.28287996429636264 -1.4294328284953157 0.31605800230510583 -1.4341622286366746 0.34449814169963955 -1.4602397925787414 C 0.3729552780398744 -1.4863173565208083 0.3871774723553538 -1.524254539325888 0.3800727490522522 -1.5598079004963739 C 0.3729552780398744 -1.5953697601397105 0.37532635196519193 -1.6001161572267708 0.2947140877408234 -1.5858939629112911 C 0.21413156817143197 -1.5716717685958117 0.1809407824534126 -1.5455857061808942 0.13827419950697406 -1.5171413175499353 C 0.0955948688512599 -1.4886969289189764 0.08373100075182183 -1.4958101506949286 0.08373100075182183 -1.4958101506949286 C 0.08373100075182183 -1.4958101506949286 0.10981281393031406 -1.4626151157404843 0.11453371559882253 -1.389133070237769 C 0.11930560810443447 -1.3156425262622038 0.1888103683130684 -1.110629616450749 0.15324850866973194 -1.086557692101424 C 0.12565396732383283 -1.0678865472486552 0.017770103721888253 -1.0548201452408574 0.000004046227708554007 -1.0548201452408574 C -0.017774758975747207 -1.0548201452408574 -0.12566287181411728 -1.0678865472486552 -0.15324466545074023 -1.086557692101424 C -0.18880652509407703 -1.110629616450749 -0.11930601412186825 -1.3156425262622038 -0.11455111856195743 -1.389133070237769 C -0.10982596765702379 -1.4626151157404843 -0.08373990524210628 -1.4958101506949286 -0.08373990524210628 -1.4958101506949286 C -0.08373990524210628 -1.4958101506949286 -0.09560377334154424 -1.4886969289189764 -0.13827035628798268 -1.5171413175499353 C -0.1809411884708464 -1.5455857061808942 -0.21413197418886576 -1.5716717685958117 -0.29471874299468226 -1.5858939629112911 C -0.3753310072190509 -1.6001161572267706 -0.3729514348208828 -1.5953697601397105 -0.3800646565968352 -1.5598079004963739 C -0.3871736291363623 -1.524254539325888 -0.3729514348208828 -1.4863173565208083 -0.3445070461899239 -1.4602397925787414 C -0.3160584083225395 -1.4341622286366746 -0.28286762260452025 -1.4294328284953157 -0.28286762260452025 -1.4294328284953157 C -0.35976180495675125 -1.4849576008647123 -0.340092089544037 -1.5383280103664816 -0.3047044485941376 -1.5417189010338712 C -0.3061916813429927 -1.5192234433983325 -0.3031534772989031 -1.4838145562663065 -0.2733875761396758 -1.464977691192951 C -0.2537561038547892 -1.4525784193039253 -0.22520123507677237 -1.453989165797125 -0.21530476344224847 -1.464977691192951 C -0.24215143917729465 -1.464977691192951 -0.2639075296748311 -1.4856842202934386 -0.2639075296748311 -1.5112093835002165 C -0.2639075296748311 -1.51869228884517 -0.2619061393185148 -1.5256397904005354 -0.25854924254252765 -1.5318436755814737 C -0.18495671689275495 -1.5047123010059327 -0.1643479202300493 -1.464370050384133 -0.1643479202300493 -1.3725313035241218 C -0.1643479202300493 -1.2945620643562898 -0.20171145611771324 -1.1486687809300358 -0.2087226962194585 -1.1219240868691966 C -0.2157211886119279 -1.095166645099082 -0.22251146841955738 -1.0448684335328045 -0.2056589967568171 -1.0157399178373723 C -0.16659576629903305 -0.9482747911128822 -0.07876829862450496 -0.9565098113051138 -0.06163962659412037 -0.8794414102594454 C -0.05262699613605881 -0.8388866978163811 -0.09791535795690742 -0.8179167160575254 -0.15217810710798974 -0.821197126577857 C -0.15217810710798974 -0.8212141235235584 -0.152165359398714 -0.8212141235235584 -0.152165359398714 -0.8212268712328339 C -0.17778825504327367 -0.866251780395314 -0.18583630883279212 -0.905710189840651 -0.18583630883279212 -0.905710189840651 C -0.19977805354420186 -0.8933151671880504 -0.20693801692083247 -0.8743890681497639 -0.2105116247545098 -0.8558241542076275 C -0.2292252619715316 -0.9062923352309169 -0.23036830656993723 -0.9486104807904812 -0.23036830656993723 -0.9486104807904812 C -0.24881424189216506 -0.9372480225892286 -0.25977727186943944 -0.9156576523122786 -0.26630409901870034 -0.8952655667072633 C -0.2797911754326029 -0.9543639469103375 -0.27249948572678795 -1.003404384494726 -0.27249948572678795 -1.003404384494726 C -0.2960572524686518 -0.9940518151226405 -0.31194514746284885 -0.9691980312710602 -0.32179487749669455 -0.9476204087033862 C -0.32677073335072104 -0.9653014814690599 -0.3256276887523152 -0.9848692152075669 -0.32478209070368047 -1.007479402226589 C -0.3236008029774471 -1.039467654036248 -0.30312798188035117 -1.1079950898670632 -0.3074324583791802 -1.1553358328813317 C -0.3209832733394622 -1.3045052775914923 -0.41969303549918396 -1.314456989299545 -0.4172497245546364 -1.3148734144692247 C -0.3931480555503341 -1.2860550930328392 -0.3642702448039945 -1.2357143891023088 -0.3701894311444376 -1.1518897021404133 C -0.4240187581801396 -1.2303561019700053 -0.5057570700572127 -1.3497511470480879 -0.493956940504154 -1.4562625072846607 C -0.43410219621737667 -1.678557061637811 -0.31274825314723054 -1.7623307577626028 -0.302673313582844 -1.7724056973269895 C -0.3439631439274853 -1.79074965097501 -0.6021424998922952 -1.6309316197830475 -0.6199298035686015 -1.2397596621791944 C -0.6199298035686015 -1.2397596621791944 -0.5808070838008632 -1.3174229563244046 -0.5416928625059758 -1.3482299204078305 C -0.5784360098755458 -1.2279127910254577 -0.5602365302659853 -1.0856781001613869 -0.5460143359505059 -1.057220963821152 C -0.5460143359505059 -1.057220963821152 -0.5108434060582969 -1.1519024498496893 -0.4693921047294943 -1.1757704108506 C -0.4775931310303236 -1.1152655333907515 -0.4892785311998989 -0.9218402913110904 -0.4338387435590083 -0.810693014134515 C -0.4338387435590083 -0.810693014134515 -0.4176831466700173 -0.9446289462599748 -0.398268385442821 -0.9956027864178751 C -0.39916072509213396 -0.9212284012658472 -0.345994278938779 -0.845914934863828 -0.28032232998576556 -0.8052157483823033 C -0.27750083699936634 -0.7699088429244847 -0.26267950034791965 -0.63661029626282 -0.1944197664118983 -0.5285989555681163 L -0.19440276946619717 -0.5285862078588404 L -0.19440276946619717 -0.5286966880058981 C -0.19443251412117435 -0.5296697631472922 -0.19546507857252227 -0.5703689496288162 -0.18491422452850204 -0.5961490670211125 C -0.18491422452850204 -0.5961490670211125 -0.17249795569377513 -0.5668250864501161 -0.14936086335801602 -0.5380747527965357 C -0.025461627669115194 -0.38404843085225693 -0.01366574735248205 -0.23852483099500388 -0.000008701481567396918 -0.18753824312782763 L -0.000008701481567396918 -0.1875 C -0.000008701481567396918 -0.18751274770927573 -0.000008701481567396918 -0.18751274770927573 0.00000404622770822094 -0.18751274770927573 L 0.00000404622770822094 -0.1875 L 0.00000404622770822094 -0.18753824312782763 C 0.013682338280749495 -0.23852483099500388 0.02544847394240546 -0.38404843085225693 0.14935620810415684 -0.5380747527965357 C 0.17249754967634123 -0.5668250864501161 0.18491806774749353 -0.5961490670211125 0.18491806774749353 -0.5961490670211125 C 0.19545192484581242 -0.5703689496288162 0.19443635734016573 -0.529669763147292 0.19440661268518866 -0.5286966880058981 L 0.19440661268518866 -0.5285862078588404 L 0.19442360963089 -0.5285989555681163 C 0.26265784814835924 -0.63661029626282 0.2774919325090819 -0.7699088429244847 0.28030917625905594 -0.8052157483823033 C 0.34597687597564386 -0.845914934863828 0.3991518206018496 -0.9212284012658472 0.3982849763710883 -0.9956027864178751 C 0.4176742421797326 -0.9446289462599748 0.433834088305149 -0.810693014134515 0.433834088305149 -0.810693014134515 C 0.48928237441889033 -0.9218402913110904 0.47758847577646435 -1.1152655333907515 0.4693959479484857 -1.1757704108506 C 0.5108345015680125 -1.1519024498496893 0.5460181791694974 -1.057220963821152 0.5460181791694974 -1.057220963821152 C 0.560240373484977 -1.0856781001613869 0.578422856148836 -1.2279127910254577 0.5416754595428408 -1.3482299204078305 C 0.5808151762562801 -1.3174229563244046 0.6199208990783174 -1.2397596621791944 0.6199208990783174 -1.2397596621791944 M -0.1579825640649497 -1.0145713778204148 C -0.18932493193796351 -1.0517649442510666 -0.035515321051375115 -1.0026905127752757 -0.000008701481567396918 -1.0026777650659997 L 0.000004046227708554007 -1.0026777650659997 C 0.03552341350679222 -1.0026905127752757 0.18929903050197816 -1.0517649442510666 0.15796516110181513 -1.0145713778204148 C 0.14302059659403454 -0.9968308157447867 0.02379977020938906 -0.945568027509966 0.000004046227708554007 -0.945568027509966 C -0.023821422408949355 -0.945568027509966 -0.14304224879359462 -0.9968308157447867 -0.15798256406494993 -1.0145713778204148 M 0.2090324844610718 -0.6601935584232357 C 0.20025781124282704 -0.6812145310191955 0.18687271650313164 -0.7077765079137466 0.1730796950666076 -0.7146857663412844 C 0.1730796950666076 -0.7146857663412844 0.17492386367518775 -0.6342647177560541 0.1292020797389586 -0.5795515495438899 C 0.06287999761287422 -0.5001970593014105 0.00007628324693842448 -0.45353619411518964 0.000004046227708554007 -0.4384386570960985 C -0.00007668926437232049 -0.45353619411518964 -0.06287615439388261 -0.5001970593014105 -0.12919823651996698 -0.5795515495438899 C -0.1749327681654721 -0.6342647177560541 -0.1730716026111906 -0.7146857663412842 -0.1730716026111906 -0.7146857663412842 C -0.18688162099341588 -0.7077765079137461 -0.20024971878741005 -0.681214531019195 -0.20905413666063188 -0.6601935584232355 C -0.21478635659836187 -0.683347647704696 -0.22706240063105376 -0.7395395501928648 -0.221869833719337 -0.7793718924436279 C -0.15167669720980437 -0.7576540450739191 -0.09487715391281781 -0.76439758328087 -0.04978000773110758 -0.7751269052547531 L 0.000004046227708554007 -0.786978025644915 L 0.049775352477248735 -0.7751269052547531 C 0.09488524636823492 -0.76439758328087 0.1516847896652216 -0.7576540450739191 0.22186092922905298 -0.7793718924436279 C 0.22705349614076953 -0.7395395501928648 0.21476895363522708 -0.683347647704696 0.2090324844610718 -0.6601935584232355" fill="#8f8f8f" transform="matrix(1,0,0,1,0,0)" fill-rule="nonzero"></path></g><g clip-path="url(#bc665209b-0e2a-4794-befc-3e0935ce7ba731b6d99f-0bff-4a0e-85bb-6284dcf09be3)"><path d=" M -0.24527887718631547 -0.45002207559146634 C -0.32114049508719855 -0.5448182910034867 -0.3578836424567686 -0.6527021546054315 -0.3578836424567686 -0.6527021546054315 C -0.3578836424567686 -0.6527021546054315 -0.3704443853299558 -0.5547827504208154 -0.3635266284295672 -0.4833105937472675 C -0.6327837437551344 -0.6940854681514292 -0.6346491585458411 -1.0237284823169364 -0.6346491585458411 -1.0237284823169364 C -0.6638541604969288 -0.9923648682617963 -0.6818539259945001 -0.9229026004174152 -0.6914826957342302 -0.8732290266056568 C -0.7955634927355313 -1.1066990727573467 -0.7182103928493679 -1.341966545916938 -0.7182103928493679 -1.341966545916938 C -0.7857817504844904 -1.3099570479251526 -0.816002319941225 -1.2619576732649622 -0.816002319941225 -1.2619576732649622 C -0.840894346920633 -1.4664224315775534 -0.6904926236471354 -1.64336063632705 -0.6862136425668581 -1.6477840914457875 C -0.7348079103265902 -1.6554837078484315 -0.8154116760781082 -1.622292922130412 -0.8154116760781082 -1.622292922130412 C -0.8136354952523327 -1.6667441843754767 -0.776883849409912 -1.7420066599403923 -0.776883849409912 -1.7420066599403923 C -0.776883849409912 -1.7420066599403923 -0.8782366366261704 -1.665558647412818 -0.8746757765017689 -1.5090975129968422 C -0.80000394479997 -1.5908825664745936 -0.7715553069325857 -1.5926629965367942 -0.7715553069325857 -1.5926629965367942 C -0.7715553069325857 -1.5926629965367942 -0.9564650792159454 -1.370410934547897 -0.8444467085721838 -1.0663908160269495 C -0.8444467085721838 -1.0663908160269495 -0.8118295697715802 -1.1675651353133452 -0.7755198445173906 -1.2176381373490819 C -0.8210206681595043 -1.0090303735218231 -0.7000279101855087 -0.6981859813018436 -0.6417666295582187 -0.5987878428412234 C -0.6497424463285071 -0.7113203710924463 -0.6500186466961516 -0.8028064313291579 -0.6475583388059029 -0.8716695568375716 C -0.6351803130990036 -0.7873689553960428 -0.573638621951382 -0.536498286082749 -0.27017090416572354 -0.32321211295123486 C -0.3092766269877605 -0.4049716710104345 -0.3152085610374795 -0.4523846510439331 -0.3152085610374795 -0.4523846510439331 C -0.28081949064752565 -0.4049716710104345 -0.16704618536011506 -0.28999583181466404 -0.13266986267943714 -0.21769932327460806 C -0.13030303799054488 -0.2959405135736586 -0.1694130100490071 -0.3551876170516184 -0.24527887718631547 -0.45002207559146634" fill="#8f8f8f" transform="matrix(1,0,0,1,0,0)" fill-rule="nonzero"></path></g><g clip-path="url(#bc665209b-0e2a-4794-befc-3e0935ce7ba731b6d99f-0bff-4a0e-85bb-6284dcf09be3)"><path d=" M 0.7715464024423013 -1.5926629965367942 C 0.7715464024423013 -1.5926629965367942 0.8000035387825364 -1.5908825664745936 0.8746583735386337 -1.5090975129968422 C 0.8782319813723112 -1.665558647412818 0.7768919418653291 -1.7420066599403923 0.7768919418653291 -1.7420066599403923 C 0.7768919418653291 -1.7420066599403923 0.8136138430527724 -1.6667441843754767 0.8153985223513986 -1.622292922130412 C 0.8153985223513986 -1.622292922130412 0.7347862581270301 -1.6554837078484312 0.6862174857858498 -1.6477840914457875 C 0.6904879683932763 -1.64336063632705 0.8408981901396246 -1.4664224315775534 0.8160019139237911 -1.261957673264962 C 0.8160019139237911 -1.261957673264962 0.7857728459942062 -1.309957047925152 0.7182184853047848 -1.341966545916938 C 0.7182184853047848 -1.341966545916938 0.7955503390088217 -1.1066990727573465 0.6914780404803713 -0.8732290266056566 C 0.6818492707406414 -0.922902600417415 0.6638452560066443 -0.992364868261796 0.6346487525284075 -1.0237284823169364 C 0.6346487525284075 -1.0237284823169364 0.6327620915555741 -0.6940854681514292 0.3635262224121336 -0.48331059374726726 C 0.3704354808396715 -0.5547827504208152 0.35785774102078327 -0.6527021546054312 0.35785774102078327 -0.6527021546054312 C 0.35785774102078327 -0.6527021546054312 0.3211358398333395 -0.5448182910034862 0.24526997269603146 -0.4500220755914661 C 0.1693998563222976 -0.3551876170516184 0.13029413350026076 -0.2959405135736586 0.13265245971630235 -0.21769932327460761 C 0.16702453316055488 -0.28999158257823865 0.280819084630092 -0.4049716710104345 0.3151784103650688 -0.4523846510439331 C 0.3151784103650688 -0.4523846510439331 0.30927622097032703 -0.4049716710104345 0.2701662489118646 -0.32321211295123486 C 0.5736254682246726 -0.536498286082749 0.6351926547908457 -0.7873689553960428 0.6475451850791933 -0.8716695568375716 C 0.6500267391515688 -0.8028064313291579 0.649746289547499 -0.7113203710924467 0.641766223540785 -0.5987878428412234 C 0.7000317534045004 -0.6981859813018441 0.8210075144327948 -1.0090303735218231 0.7755236877363823 -1.2176381373490819 C 0.8118121668084453 -1.1675651353133452 0.8444420533183248 -1.0663908160269495 0.8444420533183248 -1.0663908160269495 C 0.9564731716713624 -1.370410934547897 0.7715464024423013 -1.5926629965367942 0.7715464024423013 -1.5926629965367942" fill="#8f8f8f" transform="matrix(1,0,0,1,0,0)" fill-rule="nonzero"></path></g><g clip-path="url(#bc665209b-0e2a-4794-befc-3e0935ce7ba731b6d99f-0bff-4a0e-85bb-6284dcf09be3)"><path d=" M -0.5470256542197274 -2.228408255071646 C -0.40478671411923134 -2.2195231017063435 -0.29455727201052095 -2.1128375227763336 -0.29455727201052095 -2.1128375227763336 C -0.289220231060344 -2.153732174133422 -0.3336714933054086 -2.198179187142061 -0.3336714933054086 -2.198179187142061 C -0.26432820408093594 -2.2106336991046156 -0.1363072090594939 -2.1893025322496094 -0.1363072090594939 -2.1893025322496094 C -0.17008863864062995 -2.237297657673374 -0.21988119107229664 -2.267526725602959 -0.21988119107229664 -2.267526725602959 C 0.016597314468505542 -2.256865391411881 0.09661043635690658 -2.119950744552286 0.09661043635690658 -2.119950744552286 C 0.13528698629998837 -2.183455582928396 0.226662566389642 -2.2041578627924583 0.29925227224304374 -2.2121676734541493 C 0.24814245651953404 -2.1711158003493245 0.24061705881032758 -2.091506355921327 0.24061705881032758 -2.091506355921327 C 0.3063952386739732 -2.100395758523055 0.3170735698107525 -2.146623201593895 0.40953270518885776 -2.1590649658471737 C 0.39351308386547634 -2.175071839461279 0.311728030387725 -2.1661824368595513 0.311728030387725 -2.1661824368595513 C 0.32595022470320445 -2.2017442965028877 0.4006178071685782 -2.2230754633578944 0.4006178071685782 -2.2230754633578944 C 0.24679969780913935 -2.2874258997826393 0.1183580283815926 -2.209125220173634 0.09033006492031304 -2.189867680694174 C -0.10371131644101672 -2.3732647248101273 -0.40834332500720755 -2.320863141213326 -0.40834332500720755 -2.320863141213326 C -0.3588609668345877 -2.307257086179515 -0.30344667461224883 -2.265308624188952 -0.2742416726611612 -2.240994493363385 C -0.3981791514778896 -2.2551571983689103 -0.5470256542197274 -2.228408255071646 -0.5470256542197274 -2.228408255071646" fill="#8f8f8f" transform="matrix(1,0,0,1,0,0)" fill-rule="nonzero"></path></g><g clip-path="url(#bc665209b-0e2a-4794-befc-3e0935ce7ba731b6d99f-0bff-4a0e-85bb-6284dcf09be3)"><path d=" M -0.031835482307065455 -1.9981251362389316 C -0.06916927353975233 -2.0656837461647783 -0.13496020111267404 -2.120813339546622 -0.1954140877354188 -2.124365701198173 C -0.1954140877354188 -2.124365701198173 -0.07627824607927935 -2.035467425944469 -0.0940613005191604 -1.9607913450062449 C -0.0940613005191604 -1.9607913450062449 -0.12962316016249698 -1.9536823724667178 -0.1687373814573846 -2.0230171632183396 C -0.1687373814573846 -2.0230171632183396 -0.1740829208804121 -1.9661156382471459 -0.13496020111267404 -1.9323384579024352 C -0.09584597981778642 -1.898552779084874 -0.07272588442772843 -1.8896676257195715 -0.05494707922427278 -1.8683279603917142 C -0.05494707922427278 -1.8683279603917142 -0.039314138415593614 -1.8845090526992572 -0.028869515282205938 -1.9092566056402052 C -0.024395069326364927 -1.888839024616638 -0.012624684428283683 -1.8633606030105385 0.01438346229092391 -1.8238766981466497 C 0.01438346229092391 -1.8238766981466497 0.02082955394810415 -1.8471370183387426 0.030390335905029486 -1.8867568987682408 C 0.042254204004467444 -1.8665517795659388 0.06239133542396469 -1.852325336014034 0.06239133542396469 -1.852325336014034 C 0.06239133542396469 -1.852325336014034 0.18861490343750464 -1.9394516796783878 0.18151442937082818 -1.9856833719856528 C 0.18151442937082818 -1.9856833719856528 0.13528698629998814 -1.9394516796783878 0.09972512665665156 -1.9394516796783878 C 0.09972512665665156 -1.9394516796783878 0.10861877849480472 -2.007018788077085 0.17973824854505271 -2.0710207871149553 C 0.17973824854505271 -2.0710207871149553 0.11209040465427489 -2.075563220853601 0.042547401317813094 -1.9618239094575929 C 0.046511938902618066 -2.0329263825621395 0.03318208423645164 -2.1374363524423963 -0.05139471757272185 -2.168808464970387 C -0.05139471757272185 -2.168808464970387 -0.005184271447583044 -2.1225852711359723 -0.006956203036933339 -2.081690619778884 C -0.008243721673799165 -2.052268906770106 -0.017740765084344967 -2.0119564008032835 -0.024335580016410785 -1.980316586380499 C -0.026209493279968132 -1.986193280356689 -0.028512579422480644 -1.9921252144064079 -0.031835482307065455 -1.9981251362389316" fill="#8f8f8f" transform="matrix(1,0,0,1,0,0)" fill-rule="nonzero"></path></g><g clip-path="url(#bc665209b-0e2a-4794-befc-3e0935ce7ba731b6d99f-0bff-4a0e-85bb-6284dcf09be3)"><path d=" M -0.7639406752584478 -1.796282156800751 C -0.7639406752584478 -1.796282156800751 -0.7230502731377848 -1.8327321068569753 -0.6788242204232612 -1.8457177733726926 C -0.7132727801231692 -1.791837455499887 -0.714743015926323 -1.724567793650961 -0.714743015926323 -1.724567793650961 C -0.714743015926323 -1.724567793650961 -0.6917673945747254 -1.7376724387865865 -0.6599831061134804 -1.7395123581587413 C -0.6463897987889453 -1.718776084403277 -0.6250501334610882 -1.6984519865810663 -0.5927389396831061 -1.6804989626841733 C -0.6353162886646132 -1.6071698896927693 -0.6470186857798899 -1.5487216426627661 -0.6470186857798899 -1.5487216426627661 C -0.5848990984784274 -1.6556834219604206 -0.4634686691526259 -1.7820599624852713 -0.39056451980375173 -1.8033953785767034 C -0.4095458589155674 -1.9107055952612324 -0.4367962121110171 -1.9616369430548797 -0.5523669444063297 -1.9456258202043488 C -0.5523669444063297 -1.9456258202043488 -0.5147442050967226 -1.932784627727092 -0.4879697663809064 -1.9045611993902485 C -0.5105374610356753 -1.9032141914434284 -0.5361816028623616 -1.8951703868903351 -0.5529490897965958 -1.8693392786609357 C -0.5819373806899932 -1.8246798038310317 -0.5568753842535732 -1.7937581103641227 -0.5566969163237105 -1.7971277548493858 C -0.5549674770986133 -1.8304970084972676 -0.5300499547006534 -1.8563238674902416 -0.5010489160979801 -1.8548323855049613 C -0.4850462917202999 -1.853995285929177 -0.4713255073030059 -1.846248927925855 -0.46235111997277206 -1.8327576022755272 C -0.49819275306434446 -1.8038606947879638 -0.5302317721158036 -1.770542399396482 -0.5577039853565069 -1.7335974210547231 C -0.6576077829517377 -1.7632273466483412 -0.665371137900761 -1.869284038587407 -0.5932530972905674 -1.9225142232871415 C -0.5932530972905674 -1.9225142232871415 -0.6400541872788229 -1.9254249502384722 -0.6891413664638899 -1.8869608621166554 C -0.6565157291904355 -1.9582205569689384 -0.5829317020135134 -2.0145186903677397 -0.4930985947462437 -2.012598035503504 C -0.38167086796559857 -2.0102269615781867 -0.35796862718527456 -1.9391074915279385 -0.29159130498566144 -1.898807733270392 C -0.22521398278604832 -1.858507975012846 -0.20150324353287363 -1.882214465029595 -0.20150324353287363 -1.882214465029595 C -0.27130120105485345 -1.9130384260587223 -0.3228061957659162 -2.0016902455997587 -0.3941253799281534 -2.0487505390099576 C -0.43856814370036734 -2.07809576576308 -0.4999101207359998 -2.109204425632702 -0.5867262701413065 -2.1022569240773366 C -0.5867262701413065 -2.1022569240773366 -0.5573640464424826 -2.0862415519903803 -0.5401928820478449 -2.0717304095979805 C -0.6279906050673959 -2.0700647089192628 -0.6919373640317373 -2.045780322748673 -0.7171183390880658 -1.9983843396608751 C -0.7171183390880658 -1.9983843396608751 -0.682686776333859 -2.0166942994174932 -0.6443119221769736 -2.015032847975201 C -0.6501439433306728 -2.0104349993980706 -0.6558430892521051 -2.0056710688690167 -0.6614023510795315 -2.0007469151133415 C -0.7514904125323185 -1.9207337932249406 -0.7639406752584478 -1.796282156800751 -0.7639406752584478 -1.796282156800751" fill="#8f8f8f" transform="matrix(1,0,0,1,0,0)" fill-rule="nonzero"></path></g><g clip-path="url(#bc665209b-0e2a-4794-befc-3e0935ce7ba731b6d99f-0bff-4a0e-85bb-6284dcf09be3)"><path d=" M 0.20152833293399186 -1.8822144650295949 C 0.20152833293399186 -1.8822144650295949 0.2252263244778907 -1.8585079750128455 0.2916036466775038 -1.8988077332703919 C 0.357968221167841 -1.9391074915279383 0.3816789604210158 -2.0102269615781863 0.4930939394923848 -2.012598035503504 C 0.5829227975232292 -2.0145186903677397 0.6565280708822778 -1.9582205569689382 0.6891622066285827 -1.8869608621166551 C 0.6400750274435156 -1.925424950238472 0.5932781866916856 -1.9225142232871413 0.5932781866916856 -1.9225142232871413 C 0.6653749811197529 -1.8692840385874065 0.6576158754071548 -1.763227346648341 0.5577290747576247 -1.7335974210547234 C 0.5302450171415289 -1.7705364901232534 0.4982025877594951 -1.8038538778191557 0.46236346166461484 -1.8327576022755263 C 0.4713378489948481 -1.8462489279258547 0.48505863341214206 -1.8539910366927517 0.5010400116076958 -1.854832385504961 C 0.5300537979196451 -1.8563238674902414 0.5549670710811798 -1.8304970084972672 0.5567092580155528 -1.7971277548493854 C 0.5568792274725651 -1.7937581103641225 0.5819582208546863 -1.8246798038310312 0.5529401853063116 -1.8693392786609355 C 0.5361939445542041 -1.8951703868903351 0.5105540519639431 -1.9032141914434282 0.4879736095998981 -1.904556950153823 C 0.5147565467885649 -1.9327846277270917 0.5523707876253214 -1.9456258202043486 0.5523707876253214 -1.9456258202043486 C 0.43680855380285943 -1.961632693818454 0.40956244984383505 -1.9107055952612322 0.39056836302274345 -1.8033911293402778 C 0.46348101084446824 -1.7820599624852713 0.5848986924609936 -1.6556834219604204 0.6470097812896056 -1.548721642662766 C 0.6470097812896056 -1.548721642662766 0.6353286303564556 -1.607169889692769 0.592759779847799 -1.680498962684173 C 0.6250582259165054 -1.698451986581066 0.6464106389536382 -1.7187760844032764 0.6600039462781733 -1.7395123581587413 C 0.691783985502993 -1.737672438786586 0.7147553576181653 -1.7245635444145353 0.7147553576181653 -1.7245635444145353 C 0.7147553576181653 -1.7245635444145353 0.713276623342161 -1.7918374554998868 0.6788450605879541 -1.8457177733726922 C 0.7230583655932019 -1.832732106856975 0.7639530169502899 -1.7962821568007508 0.7639530169502899 -1.7962821568007508 C 0.7639530169502899 -1.7962821568007508 0.7515027542241608 -1.9207337932249404 0.6614146927713731 -2.000746915113342 C 0.6558511469280415 -2.0056627159915466 0.6501550685355184 -2.010426451204398 0.6443327623416675 -2.0150328479752 C 0.682694868789276 -2.0166942994174932 0.7171264315434829 -1.998384339660875 0.7171264315434829 -1.998384339660875 C 0.6919497057235797 -2.045776073512247 0.6279986975228129 -2.0700647089192623 0.5401967252668367 -2.07173040959798 C 0.5573678896614744 -2.08624155199038 0.586730113360298 -2.102256924077336 0.586730113360298 -2.102256924077336 C 0.499922462427842 -2.109204425632702 0.4385804853922095 -2.07809576576308 0.3941419708564209 -2.048750539009957 C 0.32282703593060913 -2.0016902455997583 0.2712965458009944 -1.9130384260587219 0.20152833293399186 -1.8822144650295949" fill="#8f8f8f" transform="matrix(1,0,0,1,0,0)" fill-rule="nonzero"></path></g><g clip-path="url(#bc665209b-0e2a-4794-befc-3e0935ce7ba731b6d99f-0bff-4a0e-85bb-6284dcf09be3)"><path d=" M -0.26799954435239526 -1.7309331498160603 C -0.23253541714684056 -1.7326115982040537 -0.21396625396827895 -1.7274997667844176 -0.18523716649682487 -1.7173653379100768 C -0.15652507597107201 -1.7072266597993109 -0.13108914672922556 -1.6864946352802717 -0.09740544958587138 -1.6662895160779696 C -0.055180787227664174 -1.640951319273905 0.000004046227708442984 -1.6230195415591384 0.000004046227708442984 -1.6068511969608714 C 0.000004046227708442984 -1.6230195415591384 0.05518887968308106 -1.640951319273905 0.0974092928048631 -1.6662895160779696 C 0.13108449147536638 -1.6864946352802717 0.15652891919006362 -1.7072266597993109 0.18523676047939097 -1.7173653379100768 C 0.2139615987144199 -1.7274997667844176 0.23253501112940667 -1.7326115982040537 0.2679991383349616 -1.7309331498160603 C 0.2595559055578902 -1.7427460270783945 0.239291297045634 -1.7664015262580404 0.1987620800211214 -1.7630233832999267 C 0.14994260273084814 -1.758948365568064 0.07038839837637956 -1.6903869358458463 0.000004046227708442984 -1.6903869358458463 C -0.07038455515738806 -1.6903869358458463 -0.14994725798470743 -1.758948365568064 -0.1987539875657045 -1.7630233832999267 C -0.23929595229949296 -1.7664015262580404 -0.2595605608117493 -1.7427460270783945 -0.26799954435239526 -1.7309331498160603" fill="#8f8f8f" transform="matrix(1,0,0,1,0,0)" fill-rule="nonzero"></path></g><g clip-path="url(#bc665209b-0e2a-4794-befc-3e0935ce7ba731b6d99f-0bff-4a0e-85bb-6284dcf09be3)"><path d=" M 0.06741818211509487 -0.64433115884759 C 0.04355022111418405 -0.6332618979596831 0.02015817459290692 -0.6309460641078946 0.000008295464133722952 -0.6309460641078946 C -0.020154331373915313 -0.6309460641078946 -0.043529380949491214 -0.6332618979596831 -0.06741433889610315 -0.64433115884759 C -0.09127805066058858 -0.6554089182083473 -0.1280169487937335 -0.6933588487227027 -0.1280169487937335 -0.6933588487227027 C -0.12919823651996687 -0.6684455755611682 -0.10914184059255028 -0.6337633078578688 -0.08992679347734323 -0.6124066455843105 C -0.05671476157719757 -0.5726762850077542 -0.024709512821836976 -0.5623038988935964 0.000008295464133722952 -0.5380790020329607 C 0.024721854513679142 -0.5623038988935964 0.056727103269039625 -0.5726762850077542 0.08992638745990955 -0.6124066455843105 C 0.10915843152081783 -0.6337633078578688 0.1292190766846597 -0.6684455755611682 0.12803353972200116 -0.6933588487227027 C 0.12803353972200116 -0.6933588487227027 0.09128189387958019 -0.6554089182083473 0.06741818211509487 -0.64433115884759" fill="#8f8f8f" transform="matrix(1,0,0,1,0,0)" fill-rule="nonzero"></path></g></g></g></g><defs><clipPath id="SvgjsClipPath1044"><path d=" M -0.8804828330710079 -2.327792684894286 h 1.7609656661420159 v 2.140292684894286 h -1.7609656661420159 Z"></path></clipPath><clipPath id="bc665209b-0e2a-4794-befc-3e0935ce7ba731b6d99f-0bff-4a0e-85bb-6284dcf09be3"><path d=" M -0.8847337191204542 -2.3320471314847158 L 0.884729063866595 -2.3320471314847158 L 0.884729063866595 -0.1832507635746996 L -0.8847337191204542 -0.1832507635746996 Z"></path></clipPath></defs></svg>